<?xml version="1.0" standalone="no"?>
<!DOCTYPE svg PUBLIC "-//W3C//DTD SVG 20010904//EN"
 "http://www.w3.org/TR/2001/REC-SVG-20010904/DTD/svg10.dtd">
<svg version="1.0" xmlns="http://www.w3.org/2000/svg"
 width="400.000000pt" height="400.000000pt" viewBox="0 0 400.000000 400.000000"
 preserveAspectRatio="xMidYMid meet">
<metadata>
Created by potrace 1.14, written by Peter Selinger 2001-2017
</metadata>
<g transform="translate(0.000000,400.000000) scale(0.100000,-0.100000)"
fill="#000000" stroke="none">
<path d="M1906 3454 c-4 -10 4 -30 19 -50 25 -33 27 -33 84 -29 52 5 62 2 102
-25 24 -16 53 -30 65 -30 24 0 54 -29 54 -52 0 -9 17 -23 39 -31 22 -9 42 -21
46 -27 4 -6 15 -8 26 -5 17 6 18 2 14 -42 -4 -40 -3 -42 4 -16 5 18 14 39 20
47 14 17 97 37 120 29 9 -4 13 -2 8 2 -4 5 -1 18 6 29 8 12 17 30 20 40 6 16
5 17 -8 6 -12 -10 -15 -10 -15 5 0 14 -6 16 -42 11 -24 -4 -65 -9 -93 -12 -27
-4 -55 -10 -61 -15 -7 -6 -16 -3 -25 7 -19 24 -111 74 -134 74 -12 0 -25 4
-30 9 -6 5 -39 12 -75 16 -36 3 -75 8 -87 11 -26 7 -37 32 -22 50 9 11 7 14
-9 14 -11 0 -23 -7 -26 -16z m574 -204 c0 -5 -10 -10 -22 -9 -22 0 -22 1 -3 9
11 5 21 9 23 9 1 1 2 -3 2 -9z"/>
<path d="M1835 3274 c38 -30 61 -36 32 -10 -15 14 -33 26 -40 26 -7 0 -3 -8 8
-16z"/>
<path d="M2731 3229 c-1 -29 3 -38 20 -42 14 -4 18 -2 11 6 -5 7 -14 26 -20
42 l-10 30 -1 -36z"/>
<path d="M1070 3240 c0 -5 10 -10 23 -10 18 0 19 2 7 10 -19 13 -30 13 -30 0z"/>
<path d="M1484 3234 c-18 -14 -18 -15 4 -4 12 6 22 13 22 15 0 8 -5 6 -26 -11z"/>
<path d="M1563 3236 c14 -11 15 -15 5 -19 -7 -2 -1 -2 13 0 16 2 33 -3 43 -12
9 -9 16 -12 16 -6 0 6 -18 20 -40 31 -45 23 -64 26 -37 6z"/>
<path d="M2650 3231 c0 -14 -6 -21 -20 -21 -17 0 -19 -3 -11 -18 7 -14 5 -23
-10 -35 -38 -33 -28 -39 75 -41 40 -1 60 -23 49 -54 -6 -15 33 -48 66 -57 25
-6 81 -45 65 -45 -5 0 -14 -10 -19 -22 -6 -13 -21 -28 -35 -35 -19 -10 -21
-13 -7 -13 14 0 16 -4 7 -19 -5 -11 -10 -28 -10 -38 0 -15 2 -15 10 -3 7 12
12 11 31 -5 l22 -20 -12 22 c-18 34 -13 62 12 74 19 9 22 17 21 60 0 27 4 49
9 49 6 0 7 3 4 6 -4 4 2 19 12 33 19 26 19 27 0 49 -22 28 -45 21 -29 -8 9
-17 8 -19 -12 -11 -23 8 -37 31 -19 31 6 0 11 8 11 18 -1 16 -2 16 -15 -2 -7
-10 -18 -15 -23 -12 -6 3 -13 0 -16 -6 -3 -10 -9 -8 -19 5 -9 10 -17 18 -19
17 -12 -5 -36 14 -31 26 3 8 0 14 -6 14 -6 0 -11 -4 -11 -10 0 -26 -16 -5 -30
37 -16 49 -40 70 -40 34z m161 -182 c6 -20 7 -21 9 -4 1 18 2 17 11 -4 5 -13
8 -26 6 -27 -6 -7 -71 18 -87 32 -12 12 -12 14 4 14 16 0 16 1 2 16 -27 26
-18 35 16 16 18 -10 35 -29 39 -43z"/>
<path d="M983 3202 c20 -22 13 -32 -22 -33 -19 0 -14 -4 19 -13 25 -7 53 -17
64 -21 18 -8 18 -7 0 21 -19 31 -54 63 -68 64 -5 0 -2 -8 7 -18z"/>
<path d="M1480 3205 c-10 -13 -9 -15 9 -15 11 0 21 4 21 9 0 5 8 12 18 14 11
3 8 5 -9 6 -15 0 -32 -6 -39 -14z"/>
<path d="M1360 3196 c0 -8 5 -18 10 -21 6 -3 10 1 10 9 0 8 -4 18 -10 21 -5 3
-10 -1 -10 -9z"/>
<path d="M1736 3166 c4 -11 54 -41 54 -33 0 2 -13 13 -30 25 -17 13 -27 17
-24 8z"/>
<path d="M2791 3167 c9 -7 18 -19 22 -27 3 -9 6 -4 6 13 1 22 -3 27 -21 27
-20 -1 -21 -2 -7 -13z"/>
<path d="M1427 3163 c-8 -8 11 -43 23 -43 6 0 10 7 10 16 0 10 5 12 13 7 6 -4
17 -8 23 -9 6 -1 25 -5 42 -9 19 -4 33 -2 38 6 4 8 3 9 -4 5 -6 -4 -21 -2 -32
4 -11 6 -36 12 -54 14 -18 2 -38 6 -43 9 -6 4 -13 4 -16 0z"/>
<path d="M1998 3140 c18 -17 37 -30 44 -30 6 0 -6 14 -27 30 -48 39 -60 38
-17 0z"/>
<path d="M1666 3127 c-30 -39 -32 -47 -11 -47 10 0 15 7 13 18 -2 13 3 16 20
14 18 -3 22 2 22 22 0 35 -14 33 -44 -7z"/>
<path d="M2887 3153 c-4 -3 -7 -11 -7 -17 0 -6 5 -5 12 2 6 6 9 14 7 17 -3 3
-9 2 -12 -2z"/>
<path d="M2975 3090 c-3 -5 -2 -10 4 -10 5 0 13 5 16 10 3 6 2 10 -4 10 -5 0
-13 -4 -16 -10z"/>
<path d="M1775 3081 c-3 -5 -1 -12 5 -16 5 -3 10 1 10 9 0 18 -6 21 -15 7z"/>
<path d="M2063 3063 c23 -26 22 -36 -5 -28 -21 5 -21 5 2 -9 14 -8 27 -10 28
-5 2 5 7 7 12 4 5 -3 5 7 1 22 -5 19 -15 29 -32 32 -23 3 -23 2 -6 -16z"/>
<path d="M1390 3051 c0 -5 5 -13 10 -16 6 -3 10 -2 10 4 0 5 -4 13 -10 16 -5
3 -10 2 -10 -4z"/>
<path d="M2500 3048 c0 -6 -8 -20 -17 -31 -15 -15 -11 -15 18 4 23 15 32 27
25 31 -16 11 -26 10 -26 -4z"/>
<path d="M1341 3034 c0 -11 3 -14 6 -6 3 7 2 16 -1 19 -3 4 -6 -2 -5 -13z"/>
<path d="M1994 3031 c11 -11 23 -21 28 -21 14 0 -1 19 -25 31 -22 12 -22 12
-3 -10z"/>
<path d="M2588 3033 c6 -2 18 -2 25 0 6 3 1 5 -13 5 -14 0 -19 -2 -12 -5z"/>
<path d="M1400 3012 c0 -6 9 -12 20 -15 11 -3 20 -3 20 -1 0 2 -9 8 -20 14
-11 6 -20 7 -20 2z"/>
<path d="M2296 3011 c-34 -13 5 -20 65 -11 45 6 48 8 17 9 -20 0 -42 3 -50 5
-7 3 -22 1 -32 -3z"/>
<path d="M2657 2963 c-26 -73 -75 -116 -140 -124 l-52 -6 55 -1 c42 -1 65 4
99 23 41 24 44 24 57 8 7 -10 14 -25 14 -33 1 -13 2 -13 9 0 6 9 5 34 -1 60
-5 25 -12 63 -16 84 l-7 39 -18 -50z"/>
<path d="M1790 2993 c0 -14 19 -38 25 -32 8 8 -5 39 -16 39 -5 0 -9 -3 -9 -7z"/>
<path d="M1943 2973 c9 -2 23 -2 30 0 6 3 -1 5 -18 5 -16 0 -22 -2 -12 -5z"/>
<path d="M1560 2955 c-7 -9 -10 -18 -7 -21 3 -3 10 4 17 15 13 25 8 27 -10 6z"/>
<path d="M2958 2963 c-24 -6 -22 -15 8 -37 19 -13 29 -15 37 -7 15 15 -21 49
-45 44z"/>
<path d="M1490 2950 c0 -5 5 -10 11 -10 5 0 7 5 4 10 -3 6 -8 10 -11 10 -2 0
-4 -4 -4 -10z"/>
<path d="M3181 2944 c0 -11 3 -14 6 -6 3 7 2 16 -1 19 -3 4 -6 -2 -5 -13z"/>
<path d="M3200 2946 c0 -2 7 -7 16 -10 8 -3 12 -2 9 4 -6 10 -25 14 -25 6z"/>
<path d="M1350 2930 c-13 -8 -12 -10 3 -10 9 0 17 5 17 10 0 12 -1 12 -20 0z"/>
<path d="M1507 2923 c-7 -12 -1 -92 7 -100 4 -4 6 18 5 50 -2 57 -4 64 -12 50z"/>
<path d="M1355 2890 c-17 -7 -17 -9 -2 -9 9 -1 17 -8 17 -16 0 -9 -6 -12 -17
-8 -11 4 -14 3 -9 -5 4 -7 13 -12 21 -12 7 0 16 -8 18 -17 3 -13 5 -11 6 6 1
23 2 24 14 6 9 -11 16 -14 21 -7 3 6 -6 24 -21 40 -22 23 -33 28 -48 22z"/>
<path d="M1860 2875 c0 -15 4 -24 10 -20 6 3 10 12 10 20 0 8 -4 17 -10 20 -6
4 -10 -5 -10 -20z"/>
<path d="M2385 2885 l-30 -13 40 5 c53 6 30 -11 -43 -32 -51 -15 -63 -35 -19
-35 25 1 129 28 109 29 -10 1 -10 5 0 21 11 17 10 22 -2 30 -19 12 -19 12 -55
-5z"/>
<path d="M2881 2885 c-1 -21 15 -53 22 -45 2 3 -2 19 -9 35 -10 23 -13 25 -13
10z"/>
<path d="M815 2880 c-3 -5 1 -10 9 -10 9 0 16 5 16 10 0 6 -4 10 -9 10 -6 0
-13 -4 -16 -10z"/>
<path d="M2318 2863 c6 -2 18 -2 25 0 6 3 1 5 -13 5 -14 0 -19 -2 -12 -5z"/>
<path d="M3033 2798 c3 -36 1 -48 -9 -48 -16 0 -19 -16 -4 -25 6 -3 10 -2 10
3 0 6 11 13 25 16 31 8 31 11 -1 61 l-25 40 4 -47z"/>
<path d="M3140 2824 c0 -7 52 -25 57 -20 2 2 -10 8 -26 14 -17 6 -31 9 -31 6z"/>
<path d="M3111 2783 c0 -31 2 -34 9 -18 12 28 12 55 0 55 -5 0 -10 -17 -9 -37z"/>
<path d="M2682 2780 c0 -14 2 -19 5 -12 2 6 2 18 0 25 -3 6 -5 1 -5 -13z"/>
<path d="M2864 2780 c4 -14 10 -38 13 -53 4 -22 9 -26 26 -21 19 6 19 3 13
-52 -4 -33 -7 -66 -8 -74 0 -16 47 -178 55 -186 2 -2 15 0 28 5 21 9 22 10 4
11 -13 0 -16 3 -8 8 9 6 8 15 -4 40 -8 17 -19 32 -24 32 -5 0 -9 16 -9 35 0
24 -5 35 -15 35 -19 0 -19 9 1 49 11 22 14 49 11 85 -5 61 -12 76 -34 76 -9 0
-25 8 -36 18 -20 16 -20 16 -13 -8z"/>
<path d="M3190 2780 c-9 -6 -10 -10 -3 -10 6 0 15 5 18 10 8 12 4 12 -15 0z"/>
<path d="M2750 2755 c-7 -9 -11 -17 -9 -20 3 -2 10 5 17 15 14 24 10 26 -8 5z"/>
<path d="M1350 2750 c0 -5 7 -10 16 -10 8 0 12 5 9 10 -3 6 -10 10 -16 10 -5
0 -9 -4 -9 -10z"/>
<path d="M980 2710 c0 -8 10 -24 22 -37 l22 -24 -22 -6 c-16 -4 -22 -13 -21
-32 0 -23 1 -24 9 -6 11 27 42 52 64 52 13 0 16 -6 11 -25 -4 -16 -2 -21 5
-17 6 4 22 -3 36 -16 l24 -22 0 22 c0 16 -4 21 -14 18 -22 -9 -40 18 -22 32
11 9 15 9 19 -1 3 -7 6 -3 6 9 1 20 -3 21 -41 18 -36 -3 -48 0 -70 22 -18 17
-28 22 -28 13z"/>
<path d="M1800 2684 c0 -14 3 -14 15 -4 8 7 15 14 15 16 0 2 -7 4 -15 4 -8 0
-15 -7 -15 -16z"/>
<path d="M1130 2656 c0 -8 5 -18 10 -21 6 -3 10 1 10 9 0 8 -4 18 -10 21 -5 3
-10 -1 -10 -9z"/>
<path d="M1273 2595 c0 -22 2 -30 4 -17 2 12 2 30 0 40 -3 9 -5 -1 -4 -23z"/>
<path d="M1365 2620 c3 -5 8 -10 11 -10 2 0 4 5 4 10 0 6 -5 10 -11 10 -5 0
-7 -4 -4 -10z"/>
<path d="M783 2586 c10 -15 16 -34 13 -41 -2 -7 0 -31 6 -52 6 -21 11 -72 13
-113 1 -41 6 -135 10 -208 l8 -134 -27 -24 c-15 -14 -32 -22 -39 -18 -23 14
-1 -5 62 -51 35 -26 67 -43 72 -38 4 4 2 44 -6 88 -18 94 -31 375 -21 429 6
29 11 36 24 31 14 -5 14 -4 -1 13 -10 11 -21 39 -25 63 -5 27 -13 43 -21 41
-7 -1 -29 8 -49 20 l-37 23 18 -29z m67 -232 c0 -8 -4 -12 -10 -9 -5 3 -10 10
-10 16 0 5 5 9 10 9 6 0 10 -7 10 -16z"/>
<path d="M1346 2583 c-6 -14 -5 -15 5 -6 7 7 10 15 7 18 -3 3 -9 -2 -12 -12z"/>
<path d="M956 2548 c-9 -43 -2 -45 11 -3 6 19 8 35 3 35 -4 0 -10 -14 -14 -32z"/>
<path d="M2490 2560 c6 -11 13 -20 16 -20 2 0 0 9 -6 20 -6 11 -13 20 -16 20
-2 0 0 -9 6 -20z"/>
<path d="M1130 2536 c0 -20 2 -36 4 -36 8 0 12 61 4 66 -4 3 -8 -11 -8 -30z"/>
<path d="M1168 2543 c7 -3 16 -2 19 1 4 3 -2 6 -13 5 -11 0 -14 -3 -6 -6z"/>
<path d="M1302 2504 c-13 -9 -22 -26 -22 -41 0 -31 8 -27 13 8 2 13 10 24 17
24 7 0 15 6 18 13 5 16 1 15 -26 -4z"/>
<path d="M2462 2410 c-1 -41 11 -61 28 -50 9 6 11 10 3 10 -7 0 -17 15 -22 33
-8 27 -9 29 -9 7z"/>
<path d="M2438 2353 c7 -3 16 -2 19 1 4 3 -2 6 -13 5 -11 0 -14 -3 -6 -6z"/>
<path d="M2345 2343 c-42 -10 -135 -46 -131 -51 4 -4 110 26 191 53 15 5 -37
3 -60 -2z"/>
<path d="M2476 2313 c10 -40 14 -41 14 -5 0 18 -5 32 -10 32 -6 0 -8 -11 -4
-27z"/>
<path d="M2164 2274 c-18 -14 -18 -14 6 -3 31 14 36 19 24 19 -6 0 -19 -7 -30
-16z"/>
<path d="M2073 2218 c-22 -18 -48 -44 -59 -58 -10 -14 9 0 44 30 34 30 62 56
62 57 0 7 -11 1 -47 -29z"/>
<path d="M2161 2193 c-1 -24 4 -43 9 -43 12 0 12 24 0 60 -7 21 -8 19 -9 -17z"/>
<path d="M2452 2174 c-35 -8 -85 -20 -112 -28 -35 -10 -51 -11 -59 -3 -6 6
-14 7 -18 3 -4 -4 -2 -11 5 -15 9 -5 -3 -20 -37 -49 -27 -23 -61 -63 -76 -89
-14 -27 -21 -42 -14 -35 19 18 31 15 24 -8 -3 -11 -3 -29 0 -41 5 -16 10 -18
20 -9 8 7 17 21 21 33 4 12 18 39 32 60 25 37 26 38 34 16 7 -19 10 -20 21 -7
6 8 20 18 30 22 15 5 18 1 15 -22 -2 -22 -8 -27 -30 -27 -34 1 -35 -12 -5 -55
24 -37 43 -41 40 -9 -2 11 1 17 7 14 6 -3 10 3 10 14 0 12 5 21 10 21 6 0 10
-4 10 -9 0 -5 9 -13 20 -16 30 -9 53 13 48 47 -4 25 -2 28 23 28 15 0 31 5 34
10 3 6 17 10 31 10 22 0 24 3 19 23 -4 12 -14 33 -22 46 l-15 23 44 -7 c23 -4
47 -10 52 -13 5 -2 6 -32 3 -66 l-5 -61 31 67 c19 44 37 70 51 74 21 7 21 7 1
15 -15 6 -16 8 -4 8 9 1 22 8 29 16 11 13 7 14 -32 9 -27 -4 -63 0 -98 10 -62
18 -55 18 -138 0z"/>
<path d="M1980 2119 c0 -5 5 -7 10 -4 6 3 10 8 10 11 0 2 -4 4 -10 4 -5 0 -10
-5 -10 -11z"/>
<path d="M2180 2099 c0 -5 5 -7 10 -4 6 3 10 8 10 11 0 2 -4 4 -10 4 -5 0 -10
-5 -10 -11z"/>
<path d="M2537 2003 c-4 -3 -7 -19 -7 -35 0 -70 -51 -115 -120 -105 -34 4 -39
3 -29 -9 28 -34 110 -4 154 55 33 45 34 127 2 94z"/>
<path d="M3081 1944 c-34 -73 -36 -78 -21 -69 6 3 10 -2 10 -12 1 -117 24
-389 36 -436 8 -34 31 -94 51 -135 l35 -74 -21 -22 c-30 -31 -26 -44 4 -16 14
13 26 22 28 19 1 -2 44 -66 95 -142 l92 -137 -43 6 c-23 4 -52 13 -64 20 -12
8 -30 14 -40 14 -13 0 -15 2 -5 9 10 6 3 20 -28 59 -41 53 -74 73 -44 27 36
-55 -7 -66 -66 -17 l-32 27 28 2 c15 0 33 8 39 17 7 9 16 12 20 8 5 -4 5 -1 1
6 -4 6 -14 12 -22 12 -8 0 -13 -4 -10 -9 3 -5 -1 -12 -10 -15 -16 -6 -12 6 14
36 15 18 14 20 -34 73 -15 17 -18 27 -11 34 8 8 7 11 -2 11 -7 0 -10 4 -7 8 3
5 -1 32 -8 60 -8 28 -17 84 -22 124 l-7 73 -12 -65 c-13 -65 -26 -196 -18
-172 7 18 21 15 26 -5 4 -17 5 -17 6 0 0 10 6 15 11 12 14 -9 12 -55 -2 -55
-7 0 2 -9 21 -21 18 -11 30 -23 27 -27 -4 -3 -10 -2 -14 3 -4 6 -13 11 -20 13
-10 2 -10 -2 -2 -17 7 -13 7 -22 0 -26 -5 -3 -10 0 -10 7 0 9 -3 9 -10 -2 -8
-13 -10 -12 -10 3 0 9 -6 18 -12 18 -7 1 -20 2 -28 3 -8 0 -17 12 -20 26 -3
19 -5 14 -10 -20 -4 -38 -2 -48 18 -63 12 -10 22 -23 22 -28 0 -16 -50 -6 -51
11 -2 23 -17 -32 -17 -60 0 -16 2 -19 5 -7 2 9 12 17 21 17 9 0 33 3 53 6 34
6 37 4 39 -20 4 -58 3 -82 -4 -111 l-7 -30 17 30 c10 17 17 47 15 68 -1 20 1
37 4 37 11 0 115 -82 115 -91 0 -5 -22 -32 -50 -61 -27 -28 -48 -54 -45 -56 9
-9 56 29 78 63 12 19 25 35 28 35 4 0 12 -13 19 -30 14 -33 40 -60 40 -41 0
13 -30 63 -44 72 -5 4 -6 11 -2 17 4 7 15 6 34 -4 15 -7 34 -14 42 -14 32 -1
43 -16 30 -41 -13 -23 -12 -24 7 -6 11 9 26 17 35 17 9 0 -4 -20 -34 -52 -27
-29 -52 -52 -57 -51 -4 1 -23 -14 -42 -34 -19 -20 -27 -32 -19 -27 8 5 22 9
30 11 8 1 47 36 85 78 l70 76 55 1 c30 0 43 3 29 5 -19 3 -47 28 -91 81 -80
96 -136 190 -207 342 l-11 25 5 -25 c9 -42 -36 49 -53 105 -10 36 -14 101 -13
233 0 117 -3 182 -10 182 -11 0 -6 71 10 133 5 20 8 37 6 37 -2 0 -17 -30 -34
-66z m-59 -804 c1 -9 -1 -18 -7 -20 -5 -3 -10 7 -10 22 -1 28 10 26 17 -2z
m248 -363 c0 -2 -10 -12 -22 -23 l-23 -19 19 23 c18 21 26 27 26 19z"/>
<path d="M1500 1990 c-36 -5 -79 -12 -95 -18 -45 -14 -147 -63 -142 -68 2 -3
27 7 55 21 60 30 190 57 244 51 21 -2 40 0 44 5 3 5 1 9 -5 9 -5 0 -15 2 -23
4 -7 1 -42 0 -78 -4z"/>
<path d="M2484 1989 c-3 -6 -1 -16 5 -22 8 -8 11 -5 11 11 0 24 -5 28 -16 11z"/>
<path d="M2557 1898 c-10 -11 -17 -22 -14 -24 2 -2 12 5 22 16 23 26 16 33 -8
8z"/>
<path d="M1455 1806 c-27 -14 -56 -26 -62 -26 -7 0 -13 -7 -13 -15 0 -8 -4
-15 -10 -15 -18 0 -49 -37 -38 -48 10 -10 -19 -78 -37 -85 -5 -2 -2 -3 7 -2
10 2 34 -6 55 -16 33 -17 73 -25 73 -16 0 2 -7 18 -16 35 -17 35 -11 54 27 87
15 14 23 16 26 8 3 -9 10 -9 29 -1 29 14 50 -1 40 -27 -4 -12 -14 -16 -31 -13
-32 6 -32 -9 -2 -53 26 -38 50 -44 55 -14 6 31 18 38 42 25 26 -14 50 2 50 32
0 27 23 17 31 -13 7 -23 7 -23 8 -2 1 12 -4 25 -9 28 -14 9 7 35 27 35 11 0
11 4 2 21 -10 20 -9 21 17 15 l28 -7 -19 22 c-57 65 -50 63 -143 66 -77 4 -93
1 -137 -21z"/>
<path d="M1713 1651 c14 -69 -43 -114 -109 -86 -37 15 -44 10 -16 -11 28 -22
87 -17 118 9 21 19 27 33 28 67 1 29 -4 45 -13 48 -11 4 -13 -2 -8 -27z"/>
<path d="M1350 1442 c0 -6 5 -14 10 -17 16 -10 49 -85 44 -99 -3 -7 2 -19 11
-26 19 -16 20 -41 1 -34 -8 3 -17 0 -22 -7 -4 -8 -3 -10 4 -5 7 4 12 3 12 -2
0 -4 21 -29 46 -54 39 -39 43 -46 27 -52 -9 -4 -14 -4 -10 0 4 4 -1 13 -11 20
-23 18 -31 17 -27 -3 2 -10 4 -21 4 -24 1 -4 10 -9 22 -12 11 -3 23 -15 26
-26 3 -12 9 -21 14 -21 20 0 89 -189 89 -242 0 -31 -14 -20 -34 27 -17 42 -19
44 -32 28 -8 -10 -18 -34 -24 -54 -13 -47 -80 -125 -91 -107 -7 10 -9 9 -9 -5
0 -10 -4 -16 -9 -13 -9 6 -21 -16 -21 -40 0 -8 -10 -31 -23 -52 -13 -20 -31
-56 -40 -80 l-17 -43 22 7 c22 6 22 6 6 -13 -10 -10 -24 -39 -33 -63 -10 -29
-34 -62 -66 -92 -58 -53 -62 -81 -14 -86 21 -2 26 0 16 6 -8 6 -9 12 -3 16 5
3 15 -1 22 -9 7 -8 18 -15 24 -15 6 0 22 -9 36 -20 14 -11 37 -20 51 -20 21 0
28 7 37 39 19 63 15 78 -11 40 -28 -42 -50 -44 -57 -4 -5 24 1 38 29 72 37 46
51 47 52 5 l0 -27 11 25 c11 28 36 128 64 265 17 81 19 87 25 55 5 -29 7 -31
9 -10 2 14 2 40 1 58 -2 21 4 41 15 53 9 10 12 19 6 19 -6 0 -14 -4 -17 -10
-3 -5 -11 -10 -16 -10 -6 0 2 16 17 35 24 32 28 34 39 18 7 -10 11 -21 9 -25
-3 -5 0 -8 6 -8 6 0 18 -7 26 -15 12 -12 14 -33 10 -97 -2 -46 -2 -70 1 -54 3
22 7 26 14 15 11 -18 12 83 0 133 -5 22 -5 38 0 40 9 3 -13 155 -27 192 -3 9
-2 16 3 16 5 0 15 -16 22 -35 7 -20 21 -44 32 -54 11 -10 26 -38 34 -62 l14
-44 -6 40 c-9 59 -49 167 -104 277 -27 54 -49 109 -49 123 0 28 -25 44 -43 26
-6 -6 -14 -11 -17 -11 -9 0 -33 81 -26 87 11 12 58 -30 116 -103 71 -89 76
-95 112 -118 63 -41 122 -195 134 -353 4 -46 11 -83 15 -83 12 0 11 -67 0 -88
-5 -9 -11 -55 -15 -102 -3 -47 -13 -110 -21 -140 -20 -72 -19 -100 1 -100 14
0 16 8 11 52 -3 29 -4 47 -1 40 10 -23 24 -1 24 39 0 21 5 39 10 39 6 0 10
-10 10 -23 0 -12 9 -28 20 -35 l20 -12 -20 37 c-24 46 -26 73 -4 73 12 0 14 4
6 13 -11 14 -23 207 -12 207 4 0 13 -12 20 -27 24 -53 20 -7 -5 57 l-26 65 37
32 c20 18 51 37 68 43 29 9 32 14 28 40 -3 24 0 31 18 38 20 7 21 10 7 15 -10
4 -17 13 -17 22 0 12 6 14 28 9 55 -14 14 5 -92 41 -196 66 -238 91 -318 194
-77 99 -154 168 -197 176 -20 4 -42 11 -48 17 -9 7 -13 7 -13 0z m260 -366 c0
-5 -9 3 -20 17 -11 14 -20 29 -20 34 1 10 39 -39 40 -51z m300 -45 c15 -28 13
-33 -12 -29 -15 2 -24 11 -26 26 -4 28 23 30 38 3z m-40 -61 c0 -5 5 -10 11
-10 5 0 8 4 5 9 -3 4 6 6 19 3 28 -5 32 -23 10 -42 -8 -7 -15 -17 -15 -22 0
-5 -9 -18 -19 -30 l-20 -21 -7 27 c-3 14 -4 32 -1 40 3 8 -1 20 -9 26 -20 17
-17 30 6 30 11 0 20 -4 20 -10z m-477 -467 c-7 -2 -19 -2 -25 0 -7 3 -2 5 12
5 14 0 19 -2 13 -5z"/>
<path d="M2752 1430 c0 -14 2 -19 5 -12 2 6 2 18 0 25 -3 6 -5 1 -5 -13z"/>
<path d="M3002 1430 c0 -14 2 -19 5 -12 2 6 2 18 0 25 -3 6 -5 1 -5 -13z"/>
<path d="M2685 1379 c-42 -62 -186 -207 -272 -272 -28 -21 -81 -56 -119 -79
-66 -38 -72 -40 -134 -35 -36 3 -76 9 -90 12 -19 5 -21 4 -10 -4 12 -8 11 -14
-10 -35 -18 -20 -20 -26 -8 -26 9 0 21 7 28 15 18 22 86 19 109 -4 11 -11 23
-41 27 -68 8 -60 26 -106 19 -50 -3 20 -7 52 -10 71 -5 32 -3 36 92 107 148
111 251 199 322 274 48 52 65 65 72 54 7 -12 9 -12 10 1 1 8 5 -1 9 -20 6 -27
8 -18 9 43 0 42 0 77 -1 77 -2 0 -21 -28 -43 -61z"/>
<path d="M2991 1354 c0 -11 3 -14 6 -6 3 7 2 16 -1 19 -3 4 -6 -2 -5 -13z"/>
<path d="M2311 1351 c-10 -6 -10 -10 -1 -16 13 -8 24 -1 19 14 -3 6 -10 7 -18
2z"/>
<path d="M2072 1270 c-56 -13 -57 -23 -3 -34 27 -5 32 -3 27 9 -3 8 3 19 12
24 20 12 10 12 -36 1z"/>
<path d="M2711 1264 c0 -11 3 -14 6 -6 3 7 2 16 -1 19 -3 4 -6 -2 -5 -13z"/>
<path d="M2971 1244 c0 -11 3 -14 6 -6 3 7 2 16 -1 19 -3 4 -6 -2 -5 -13z"/>
<path d="M1375 1200 c3 -5 11 -10 16 -10 6 0 7 5 4 10 -3 6 -11 10 -16 10 -6
0 -7 -4 -4 -10z"/>
<path d="M2682 1020 c0 -14 2 -19 5 -12 2 6 2 18 0 25 -3 6 -5 1 -5 -13z"/>
<path d="M1743 1015 c3 -11 9 -37 13 -58 4 -25 10 -35 16 -29 7 7 6 23 -2 49
-13 40 -37 74 -27 38z"/>
<path d="M2080 905 c7 -9 15 -13 17 -11 7 7 -7 26 -19 26 -6 0 -6 -6 2 -15z"/>
<path d="M2896 825 c-3 -9 -5 -29 -5 -43 1 -20 3 -17 9 13 8 43 7 57 -4 30z"/>
<path d="M3000 790 c6 -11 15 -20 20 -20 6 0 2 9 -7 20 -10 11 -19 20 -21 20
-1 0 2 -9 8 -20z"/>
<path d="M2981 780 c14 -31 19 -36 19 -24 0 6 -7 19 -16 30 -14 18 -14 18 -3
-6z"/>
<path d="M1282 751 c-6 -17 -9 -31 -6 -31 7 0 25 52 20 57 -2 2 -8 -10 -14
-26z"/>
<path d="M1530 701 c-7 -17 -8 -36 -4 -43 12 -19 5 -57 -21 -108 -12 -25 -27
-63 -33 -85 -34 -131 -64 -230 -74 -242 -8 -10 0 -13 41 -13 33 0 53 5 55 13
2 6 13 66 26 132 12 66 28 143 35 170 13 46 20 129 17 183 -3 31 -27 27 -42
-7z"/>
<path d="M1234 629 c-14 -28 -23 -53 -20 -56 5 -5 30 39 46 82 16 42 2 28 -26
-26z"/>
<path d="M3043 672 c-13 -2 -23 -8 -23 -13 0 -9 37 -3 49 7 8 7 -4 10 -26 6z"/>
<path d="M3098 673 c7 -3 16 -2 19 1 4 3 -2 6 -13 5 -11 0 -14 -3 -6 -6z"/>
<path d="M2980 639 c0 -5 5 -7 10 -4 6 3 10 8 10 11 0 2 -4 4 -10 4 -5 0 -10
-5 -10 -11z"/>
<path d="M1706 596 c-10 -22 -19 -59 -20 -82 0 -23 -4 -40 -8 -37 -11 6 -10
-19 1 -36 13 -20 53 108 49 156 l-3 38 -19 -39z"/>
<path d="M1616 573 c-6 -14 -5 -15 5 -6 7 7 10 15 7 18 -3 3 -9 -2 -12 -12z"/>
<path d="M3125 525 c-5 -2 -23 -6 -39 -10 -18 -4 -25 -10 -20 -15 9 -9 41 -2
99 21 18 7 17 8 -5 8 -14 -1 -29 -2 -35 -4z"/>
<path d="M2259 433 c-13 -16 -12 -17 4 -4 16 13 21 21 13 21 -2 0 -10 -8 -17
-17z"/>
<path d="M1710 361 c0 -14 -71 -111 -82 -111 -5 0 -6 -37 -4 -82 7 -142 24
-154 55 -38 21 78 44 231 35 239 -2 2 -4 -1 -4 -8z"/>
<path d="M1771 264 c0 -11 3 -14 6 -6 3 7 2 16 -1 19 -3 4 -6 -2 -5 -13z"/>
<path d="M3881 236 l-22 -24 23 -5 c33 -9 81 6 84 25 3 22 -27 33 -38 13 -5
-8 -16 -15 -25 -15 -13 0 -13 3 -3 15 20 24 6 17 -19 -9z"/>
<path d="M1450 177 l-35 -10 30 -8 c29 -8 51 1 44 18 -3 6 -18 6 -39 0z"/>
<path d="M3920 186 c0 -2 8 -10 18 -17 15 -13 16 -12 3 4 -13 16 -21 21 -21
13z"/>
<path d="M1100 151 c-16 -31 -12 -36 10 -11 23 26 24 30 10 30 -5 0 -14 -9
-20 -19z"/>
<path d="M1438 113 c-22 -3 -28 -10 -28 -29 0 -19 5 -24 25 -24 16 0 23 -4 19
-14 -3 -8 3 -16 17 -19 19 -5 21 -3 15 25 -3 17 -6 39 -6 49 0 11 -3 18 -7 18
-5 -1 -20 -4 -35 -6z"/>
<path d="M3950 90 c-12 -8 -12 -11 3 -28 9 -10 17 -28 17 -40 0 -12 4 -22 9
-22 6 0 6 13 1 33 -5 17 -10 40 -12 49 -2 13 -7 15 -18 8z"/>
<path d="M1030 82 c0 -5 7 -13 16 -16 10 -4 14 -1 12 6 -5 15 -28 23 -28 10z"/>
<path d="M3890 80 c0 -5 9 -10 21 -10 11 0 17 5 14 10 -3 6 -13 10 -21 10 -8
0 -14 -4 -14 -10z"/>
<path d="M1637 23 c-4 -3 -7 -11 -7 -17 0 -6 5 -5 12 2 6 6 9 14 7 17 -3 3 -9
2 -12 -2z"/>
</g>
</svg>
